<svg width="290" height="298" viewBox="0 0 290 298" fill="none" xmlns="http://www.w3.org/2000/svg">
<path fill-rule="evenodd" clip-rule="evenodd" d="M147.532 14.3437L256.576 47.0576C260.022 48.0908 262.38 51.2618 262.38 54.8584V174.809C262.38 190.411 256.065 206.382 243.609 222.278C234.095 234.419 220.933 246.61 204.489 258.513C176.865 278.51 149.663 290.777 148.519 291.289C147.461 291.763 146.326 292 145.191 292C144.056 292 142.922 291.763 141.863 291.289C140.719 290.777 113.516 278.51 85.8919 258.513C69.4481 246.61 56.286 234.419 46.7726 222.278C34.3164 206.381 28 190.411 28 174.809V54.8584C28 51.2618 30.3592 48.0908 33.8038 47.0576L142.85 14.3437C144.378 13.8854 146.005 13.8854 147.532 14.3437ZM199.839 250.163C174.381 268.577 149.312 279.874 148.258 280.345C147.283 280.782 146.237 281 145.191 281C144.145 281 143.099 280.781 142.124 280.345C141.069 279.874 116 268.577 90.5421 250.163C75.3878 239.202 63.2578 227.975 54.4905 216.796C43.0111 202.157 37.1901 187.45 37.1901 173.083V62.625C37.1901 59.313 39.3643 56.393 42.5387 55.4415L143.034 25.3165C144.441 24.8945 145.941 24.8945 147.348 25.3165L247.841 55.4415C251.017 56.393 253.19 59.313 253.19 62.625V173.083C253.19 187.451 247.37 202.158 235.891 216.796C227.123 227.975 214.993 239.202 199.839 250.163ZM145.338 32.0217L245.831 62.1467C246.046 62.2111 246.19 62.4066 246.19 62.625V173.083C246.19 185.475 241.183 198.704 230.382 212.476C222.122 223.009 210.518 233.8 195.737 244.492C170.848 262.494 146.281 273.561 145.4 273.955L145.396 273.957C145.333 273.985 145.264 274 145.191 274C145.12 274 145.05 273.985 144.984 273.956L144.981 273.954C144.1 273.561 119.533 262.494 94.6446 244.492C79.8628 233.8 68.2587 223.009 59.9988 212.476C49.1983 198.703 44.1901 185.474 44.1901 173.083V62.625C44.1901 62.4076 44.3334 62.2113 44.5487 62.1467L145.044 32.0216C145.141 31.9927 145.243 31.9932 145.338 32.0217ZM158.833 60.1778C170.764 62.7075 184.951 70.6323 193.329 79.4475C203.226 89.8618 208.716 102.385 209.551 116.454C210.085 125.432 210.088 125.442 214.097 127.612C220.64 131.153 223.19 136.048 223.19 145.069C223.19 155.668 219.846 161.35 211.499 164.933C208.543 166.202 207.745 167.667 204.571 177.646C202.598 183.849 199.09 192.154 196.776 196.103C191.403 205.273 176.548 220.477 168.63 224.909C160.629 229.388 149.415 233 143.51 233C137.102 233 125.802 229.351 119.188 225.146C102.474 214.518 85.4257 190.904 81.7876 173.343C80.7565 168.365 79.9036 167.056 75.8138 164.167C69.555 159.746 66.1901 152.664 66.1901 143.916C66.1901 140.228 66.9472 135.858 67.9282 133.888C69.5917 130.546 74.8841 125.878 77.0097 125.878C77.5653 125.878 78.5229 120.638 79.1375 114.233C80.0806 104.416 80.8879 101.307 84.2855 94.4267C92.5887 77.6075 105.998 66.642 124.847 61.2557C133.603 58.754 149.705 58.2429 158.833 60.1778ZM153.547 79.2957C150.819 73.6205 148.587 68.2845 148.587 67.4364C148.587 66.1275 149.723 66.132 156.103 67.4666C165.045 69.3356 175.735 74.1483 183.288 79.7041C192.603 86.5566 200.613 100.803 202.516 113.902L203.29 119.222L198.487 117.335C192.042 114.803 178.068 107.371 172.348 103.433C165.121 98.4572 158.946 90.5291 153.547 79.2957ZM119.916 71.2326C121.905 70.4872 124.536 69.4561 125.761 68.9406C128.345 67.8549 136.776 67.548 137.731 68.5043C139.234 70.0107 134.647 77.5639 129.387 82.2461L126.379 84.923L121.35 79.4564C118.584 76.4503 116.316 73.6752 116.309 73.2891C116.302 72.9041 117.926 71.978 119.916 71.2326ZM128.604 87.6256L134.421 81.3087L140.236 74.993L140.555 86.0746C140.731 92.1694 140.631 97.4005 140.333 97.6984C140.036 97.9975 137.275 95.8528 134.198 92.9337L128.604 87.6256ZM119.59 91.8915C113.021 98.6 112.868 98.2418 113.961 78.7334C114.122 75.85 115.263 76.4481 120.103 81.9526L124.465 86.9148L119.59 91.8915ZM147.474 193.945L147.55 135.084C147.605 90.972 147.934 76.9212 148.86 79.0123C154.794 92.4059 156.24 94.67 163.53 101.973C170.299 108.752 173.681 111.018 187.44 117.992L203.466 126.117L202.861 141.899C201.394 180.174 186.101 208.827 160.562 221.149C159.626 221.6 158.757 222.024 157.95 222.417C152.597 225.028 149.963 226.313 148.674 225.49C147.426 224.693 147.439 221.92 147.465 216.459C147.47 215.61 147.474 214.695 147.474 213.712V200.971L157.656 200.31C168.166 199.627 170.521 198.7 169.369 195.694C168.826 194.275 166.696 193.945 158.086 193.945H147.474ZM99.8987 89.3552C99.5457 88.4335 101.311 85.713 104.13 82.8352C106.79 80.1192 109.113 77.8965 109.291 77.8965C109.47 77.8965 109.616 82.4581 109.616 88.0329V98.1693L105.061 94.5539C102.554 92.5644 100.232 90.2255 99.8987 89.3552ZM116.297 100.552C116.297 100.101 118.628 97.3603 121.478 94.4602L126.659 89.1889L132.606 94.9802C135.876 98.166 138.555 100.804 138.56 100.844C138.563 100.884 133.556 101.019 127.431 101.144C121.307 101.269 116.297 101.002 116.297 100.552ZM90.9452 98.8187C91.8405 97.4384 93.2713 95.1777 94.1253 93.7974C94.9782 92.4171 95.9313 91.3068 96.2442 91.3313C96.556 91.3559 99.2395 93.6155 102.208 96.3527L107.604 101.329H98.4612H89.3173L90.9452 98.8187ZM92.0186 110.983C88.6003 107.547 88.186 106.664 89.5734 105.778C91.5365 104.524 106.325 104.289 106.171 105.514C106.113 105.974 103.831 108.324 101.1 110.736L96.1351 115.12L92.0186 110.983ZM126.302 114.72C125.954 114.72 123.455 112.46 120.751 109.698L115.834 104.677L126.922 104.727L138.009 104.777L132.472 109.749C129.427 112.482 126.651 114.72 126.302 114.72ZM98.2229 117.493L103.641 111.921L109.059 106.351L109.397 111.055C109.583 113.644 109.583 118.304 109.397 121.413L109.059 127.065L103.641 122.278L98.2229 117.493ZM114.624 125.878C114.319 125.878 114.07 121.61 114.07 116.393C114.07 111.177 114.446 106.956 114.905 107.014C115.364 107.072 117.711 109.36 120.119 112.1L124.5 117.08L119.839 121.48C117.275 123.899 114.929 125.878 114.624 125.878ZM129.102 116.85L134.112 112.44C136.868 110.015 139.499 108.029 139.958 108.028C140.417 108.026 140.793 112.293 140.793 117.509C140.793 122.726 140.602 126.994 140.368 126.994C140.134 126.994 137.504 124.712 134.522 121.923L129.102 116.85ZM86.4412 118.986C86.2497 116.499 86.3588 113.769 86.6851 112.919C87.5447 110.672 88.8396 111.003 91.8794 114.247L94.574 117.12L90.6813 120.313L86.7897 123.507L86.4412 118.986ZM86.8944 128.11L91.257 123.633C93.6554 121.172 95.9514 119.288 96.3589 119.449C97.2519 119.801 106.276 127.969 106.276 128.426C106.276 128.745 102.953 128.719 92.4094 128.32L86.8944 128.11ZM115.74 129.138L121.124 124.172C127.17 118.596 127.729 118.642 134.052 125.229L137.889 129.226L126.815 129.181L115.74 129.138ZM103.373 147.468C99.8886 144.493 94.7333 139.922 91.9139 137.313L86.7897 132.568L97.9245 132.85L109.059 133.131L109.382 143.004L109.706 152.877L103.373 147.468ZM114.07 143.305C114.07 136.492 114.436 134.702 116.018 133.778C118.116 132.554 136.339 132.108 136.339 133.281C136.339 134.129 130.943 138.982 128.418 140.404C127.083 141.156 125.437 140.401 122.016 137.465C119.482 135.293 117.41 134.005 117.41 134.602C117.41 135.2 119.216 137.279 121.424 139.222C123.632 141.164 125.26 142.866 125.043 143.002C124.826 143.139 122.268 145.151 119.359 147.472L114.07 151.692V143.305ZM76.1735 154.838C72.9032 150.234 72.6983 140.796 75.7715 136.248L77.876 133.131L78.6353 145.391C79.0529 152.134 79.2344 157.811 79.0384 158.008C78.8413 158.205 77.5531 156.778 76.1735 154.838ZM209.828 146.844C209.828 140.427 210.128 134.876 210.494 134.51C211.676 133.325 213.947 134.855 215.245 137.708C217.961 143.683 216.143 153.259 211.572 157.061C210.009 158.362 209.828 157.306 209.828 146.844ZM89.6336 147.236C85.7531 150.648 85.1195 149.816 85.1195 141.299V135.701L88.9365 138.88C91.0354 140.628 92.7891 142.574 92.8337 143.204C92.8782 143.835 91.4374 145.649 89.6336 147.236ZM131.398 141.678C131.972 141.177 133.887 139.676 135.654 138.343C137.422 137.011 139.3 135.921 139.83 135.921C140.36 135.921 140.793 139.436 140.793 143.732C140.793 148.028 140.417 151.534 139.958 151.524C138.161 151.483 130.397 142.551 131.398 141.678ZM86.233 153.904C86.233 153.361 88.2506 151.092 90.7159 148.859C94.2378 145.671 95.6107 145.036 97.1183 145.897C99.6949 147.37 106.276 153.336 106.276 154.201C106.276 154.58 101.766 154.89 96.2543 154.89C90.7426 154.89 86.233 154.446 86.233 153.904ZM115.74 154.332L121.686 149.59C124.956 146.981 127.967 144.848 128.378 144.848C128.789 144.848 131.323 146.981 134.01 149.59L138.896 154.332L133.164 154.669C130.011 154.856 124.8 154.856 121.586 154.669L115.74 154.332ZM94.6843 169.28C94.4582 169.037 92.4684 166.453 90.2604 163.538L86.2475 158.238H96.3545C101.913 158.238 106.294 158.634 106.09 159.117C105.491 160.536 95.1352 169.765 94.6843 169.28ZM122.619 164.875C119.754 162.347 117.41 159.82 117.41 159.259C117.41 158.016 134.112 157.918 136.049 159.151C137.027 159.773 136.031 161.403 132.629 164.749L127.829 169.47L122.619 164.875ZM97.9801 171.657L103.477 166.063C106.502 162.987 109.119 160.469 109.295 160.469C109.472 160.469 109.616 165.61 109.616 171.894V183.318L103.798 177.487L97.9801 171.657ZM114.07 182.202V171.104V160.005L119.338 164.98C122.236 167.716 124.843 170.098 125.131 170.273C125.419 170.449 123.049 173.204 119.862 176.397L114.07 182.202ZM130.215 170.7L134.617 166.142C137.037 163.636 139.418 161.585 139.906 161.585C140.393 161.585 140.793 165.351 140.793 169.954C140.793 174.557 140.376 178.323 139.866 178.323C139.355 178.323 136.975 176.608 134.577 174.511L130.215 170.7ZM91.2169 172.766C89.0657 174.555 88.882 174.316 87.9233 168.503L87.1316 163.703L90.0222 166.6C93.3704 169.955 93.5407 170.834 91.2169 172.766ZM93.1677 180.89C91.4608 177.529 91.4775 177.183 93.4517 174.997L95.5494 172.674L100.997 178.008C109.291 186.135 109.488 186.873 104.538 191.285C99.7762 195.531 98.6093 195.161 96.4235 188.715C95.6296 186.375 94.1643 182.853 93.1677 180.89ZM116.297 184.559C116.297 183.721 118.667 180.97 121.563 178.447C124.461 175.924 127.384 173.86 128.059 173.86C128.734 173.86 131.236 175.548 133.618 177.611L137.948 181.362L129.357 182.168C117.663 183.266 117.092 185.119 128.512 184.911C133.484 184.821 137.903 185.097 138.331 185.527C139.182 186.38 130.401 195.061 128.689 195.061C126.825 195.061 116.297 186.139 116.297 184.559ZM115.049 209.567C114.51 209.567 114.07 204.797 114.07 198.966C114.07 193.136 114.356 188.366 114.706 188.366C115.054 188.366 117.794 190.439 120.793 192.973L126.245 197.581L121.136 203.574C118.326 206.87 115.586 209.567 115.049 209.567ZM136.83 197.293C132.565 197.293 132.547 196.614 136.699 191.992C139.824 188.513 140.793 188.842 140.793 193.387C140.793 197.119 140.617 197.293 136.83 197.293ZM101.822 199.072C101.822 198.459 103.423 196.301 105.38 194.278C107.338 192.253 109.342 190.598 109.834 190.598C110.326 190.598 110.729 194.716 110.729 199.751V208.904L106.276 204.546C103.826 202.149 101.822 199.685 101.822 199.072ZM116.619 214.44C116.39 213.755 118.781 210.37 121.93 206.918C125.168 203.367 128.605 200.64 129.843 200.64C131.706 200.64 135.836 202.25 137.342 203.564C137.589 203.778 135.583 206.347 132.885 209.271C130.188 212.196 127.19 215.814 126.223 217.311L124.465 220.034L120.748 217.859C118.704 216.663 116.846 215.124 116.619 214.44ZM137.357 221.213C131.797 215.911 131.608 214.875 135.365 210.308C137.216 208.06 139.193 206.219 139.761 206.219C140.329 206.219 140.793 210.33 140.793 215.355V224.491L137.357 221.213ZM129.989 222.96C124.943 220.71 124.767 220.49 126.809 218.978C129.87 216.712 130.638 216.923 134.203 221.005C138.12 225.49 136.918 226.048 129.989 222.96ZM184.485 139.27C177.098 142.083 173.066 142.083 167.254 139.268C161.534 136.499 158.603 136.404 158.625 138.989C158.651 141.935 159.83 143.204 164.967 145.814C170.271 148.509 179.954 149.019 185.001 146.869C188.973 145.178 194.24 140.408 194.24 138.502C194.24 136.445 191.29 136.676 184.485 139.27Z" fill="#B0F001"/>
<path fill-rule="evenodd" clip-rule="evenodd" d="M260.278 12H226.84V0H260.278C276.693 0 290 13.3069 290 29.7225V56.7421H278V29.7225C278 19.9342 270.066 12 260.278 12Z" fill="#B0F001"/>
<path fill-rule="evenodd" clip-rule="evenodd" d="M0 29.7225C0 13.3068 13.3068 0 29.7225 0H63.1602V12H29.7225C19.9343 12 12 19.9343 12 29.7225V56.7421H0V29.7225Z" fill="#B0F001"/>
<path fill-rule="evenodd" clip-rule="evenodd" d="M12 241.258V268.277C12 278.066 19.9343 286 29.7225 286H63.1602V298H29.7225C13.3068 298 0 284.693 0 268.277V241.258H12Z" fill="#B0F001"/>
<path fill-rule="evenodd" clip-rule="evenodd" d="M290 241.258V268.277C290 284.693 276.693 298 260.278 298H226.84V286H260.278C270.066 286 278 278.066 278 268.277V241.258H290Z" fill="#B0F001"/>
</svg>
