<svg width="35" height="50" viewBox="0 0 35 50" fill="none" xmlns="http://www.w3.org/2000/svg">
<g clip-path="url(#clip0_7820_1543)">
<path d="M11.9361 31.8931V21.631L1.05315 27.0816C0.567923 27.327 0.258301 27.8225 0.258301 28.369V48.5551C0.258301 49.6249 1.38126 50.3195 2.33785 49.8425L22.8237 39.5804C23.309 39.335 23.6186 38.8395 23.6186 38.293V28.369L14.0203 33.1805C13.0637 33.6575 11.9408 32.9628 11.9408 31.8931H11.9361Z" fill="white"/>
<path d="M33.2168 0.152805L12.7309 10.4195C12.2457 10.665 11.936 11.1605 11.936 11.7069V21.631L21.5343 16.8195C22.4909 16.3425 23.6139 17.0371 23.6139 18.1069V28.369L34.4968 22.9138C34.9821 22.6683 35.2917 22.1728 35.2917 21.6264V1.4402C35.2917 0.370458 34.1687 -0.324179 33.2121 0.152805H33.2168Z" fill="#B0F001"/>
</g>
<defs>
<clipPath id="clip0_7820_1543">
<rect width="35" height="50" fill="white"/>
</clipPath>
</defs>
</svg>
