<svg width="271" height="50" viewBox="0 0 271 50" fill="none" xmlns="http://www.w3.org/2000/svg">
<g clip-path="url(#clip0_7820_1484)">
<path d="M81.5137 25.6043C81.5137 34.0974 75.8065 39.9787 68.2 39.8722C64.0686 39.8722 60.8106 37.9133 59.0176 35.1903H58.7449V49.6156C58.7449 49.8287 58.5739 50 58.3614 50H52.9361C52.7235 50 52.5525 49.8287 52.5525 49.6156V12.434C52.5525 12.221 52.7235 12.0496 52.9361 12.0496H58.3614C58.5739 12.0496 58.7449 12.221 58.7449 12.434V15.8053H59.0176C60.8661 13.1935 64.124 11.3411 68.2 11.2855C75.9682 11.23 81.5137 17.2224 81.5137 25.6043ZM75.2103 25.5488C75.2103 20.8669 71.8969 17.2177 66.9522 17.2177C62.0075 17.2177 58.8004 20.9225 58.8004 25.5488C58.8004 30.175 62.0583 33.8798 66.9522 33.8798C71.8461 33.8798 75.2103 30.2306 75.2103 25.5488Z" fill="black"/>
<path d="M90.6637 12.434V39.4878C90.6637 39.7008 90.4927 39.8722 90.2801 39.8722H84.7993C84.5868 39.8722 84.4158 39.7008 84.4158 39.4878V12.434C84.4158 12.221 84.5868 12.0496 84.7993 12.0496H90.2801C90.4927 12.0496 90.6637 12.221 90.6637 12.434Z" fill="black"/>
<path d="M146.151 18.1485H135.235C135.023 18.1485 134.852 18.3199 134.852 18.5329V31.4346C134.852 32.9026 135.721 33.7779 137.296 33.7779H146.151C146.363 33.7779 146.534 33.9492 146.534 34.1622V39.4924C146.534 39.7055 146.363 39.8768 146.151 39.8768H136.049C131.377 39.8768 128.604 37.1538 128.604 32.5275V18.5375C128.604 18.3245 128.433 18.1532 128.22 18.1532H124.644C124.431 18.1532 124.26 17.9818 124.26 17.7688V12.4386C124.26 12.2256 124.431 12.0543 124.644 12.0543H128.22C128.433 12.0543 128.604 11.8829 128.604 11.6699V3.13048C128.604 2.98692 128.687 2.85263 128.817 2.78779L134.297 0.0416603C134.551 -0.0880053 134.852 0.101862 134.852 0.384348V11.6606C134.852 11.8737 135.023 12.045 135.235 12.045H146.151C146.363 12.045 146.534 12.2163 146.534 12.4294V17.7595C146.534 17.9726 146.363 18.1439 146.151 18.1439V18.1485Z" fill="black"/>
<path d="M207.65 25.6043C207.65 34.0974 201.943 39.9787 194.336 39.8722C190.205 39.8722 186.947 37.9133 185.154 35.1903H184.881V49.6156C184.881 49.8287 184.71 50 184.498 50H179.072C178.86 50 178.689 49.8287 178.689 49.6156V12.434C178.689 12.221 178.86 12.0496 179.072 12.0496H184.498C184.71 12.0496 184.881 12.221 184.881 12.434V15.8053H185.154C187.002 13.1935 190.26 11.3411 194.336 11.2855C202.104 11.23 207.65 17.2224 207.65 25.6043ZM201.347 25.5488C201.347 20.8669 198.033 17.2177 193.088 17.2177C188.144 17.2177 184.937 20.9225 184.937 25.5488C184.937 30.175 188.199 33.8798 193.088 33.8798C197.978 33.8798 201.347 30.2306 201.347 25.5488Z" fill="black"/>
<path d="M233.705 12.0496H239.13C239.342 12.0496 239.513 12.221 239.513 12.434V39.4878C239.513 39.7008 239.342 39.8722 239.13 39.8722H233.705C233.492 39.8722 233.321 39.7008 233.321 39.4878V35.1903H233.048C231.255 37.9133 228.104 39.8722 223.866 39.8722C216.259 39.9833 210.552 34.1021 210.552 25.6043C210.552 17.1066 216.093 11.23 223.866 11.2855C228.048 11.3411 231.255 13.1935 233.048 15.8053H233.321V12.434C233.321 12.221 233.492 12.0496 233.705 12.0496ZM233.266 25.5534C233.266 20.9271 230.008 17.2224 225.114 17.2224C220.22 17.2224 216.856 20.8715 216.856 25.5534C216.856 30.2353 220.169 33.8844 225.114 33.8844C230.058 33.8844 233.266 30.1287 233.266 25.5534Z" fill="black"/>
<path d="M264.186 12.0496H269.778C270.046 12.0496 270.231 12.3136 270.138 12.5636L259.024 43.4102C257.448 47.7679 254.676 50 250.17 50H243.543C243.331 50 243.16 49.8286 243.16 49.6156V44.2345C243.16 44.0215 243.331 43.8501 243.543 43.8501H250.114C251.561 43.8501 252.513 43.4102 253.164 42.3867C253.229 42.2849 253.238 42.1506 253.192 42.0348L240.992 12.5822C240.886 12.3275 241.075 12.0496 241.348 12.0496H247.416C247.573 12.0496 247.711 12.1469 247.772 12.2904L255.988 32.7683C256.122 33.0971 256.589 33.0879 256.709 32.7498L263.835 12.3043C263.89 12.1515 264.034 12.045 264.195 12.045L264.186 12.0496Z" fill="black"/>
<path d="M161.886 12.0496C154.21 12.0496 147.985 18.2875 147.985 25.9794C147.985 33.6714 154.21 39.9092 161.886 39.9092C169.562 39.9092 175.787 33.6714 175.787 25.9794C175.787 18.2875 169.562 12.0496 161.886 12.0496ZM161.886 34.0372C157.445 34.0372 153.845 30.4297 153.845 25.9794C153.845 21.5291 157.445 17.9216 161.886 17.9216C166.327 17.9216 169.927 21.5291 169.927 25.9794C169.927 30.4297 166.327 34.0372 161.886 34.0372Z" fill="black"/>
<path d="M107.462 25.9794C115.009 25.9794 121.15 19.9546 121.358 12.4386C121.363 12.2256 121.187 12.045 120.975 12.045H115.882C115.674 12.045 115.508 12.2117 115.498 12.4201C115.304 16.6944 111.783 20.1028 107.467 20.1028C103.15 20.1028 99.6291 16.6944 99.435 12.4201C99.4258 12.2117 99.2594 12.045 99.0514 12.045H93.9589C93.7463 12.045 93.566 12.221 93.5753 12.4386C93.7832 19.95 99.9248 25.9794 107.471 25.9794H107.462Z" fill="black"/>
<path d="M107.462 25.9794C99.9156 25.9794 93.774 32.0043 93.566 39.5202C93.5614 39.7333 93.737 39.9139 93.9496 39.9139H99.0422C99.2501 39.9139 99.4165 39.7471 99.4257 39.5388C99.6198 35.2644 103.141 31.8561 107.457 31.8561C111.774 31.8561 115.295 35.2644 115.489 39.5388C115.498 39.7471 115.665 39.9139 115.873 39.9139H120.965C121.178 39.9139 121.358 39.7379 121.349 39.5202C121.141 32.0089 114.999 25.9794 107.453 25.9794H107.462Z" fill="black"/>
<path d="M90.1091 0.0417022L84.6284 2.78784C84.499 2.85267 84.4158 2.98696 84.4158 3.13052V8.53017C84.4158 8.81729 84.7161 9.00252 84.9703 8.87286L90.4511 6.12673C90.5805 6.06189 90.6637 5.9276 90.6637 5.78404V0.38439C90.6637 0.0972731 90.3633 -0.0879635 90.1091 0.0417022Z" fill="black"/>
<path d="M11.6778 31.8931V21.631L0.79485 27.0816C0.309622 27.327 0 27.8225 0 28.369V48.5551C0 49.6249 1.12296 50.3195 2.07955 49.8425L22.5654 39.5804C23.0507 39.335 23.3603 38.8395 23.3603 38.293V28.369L13.762 33.1805C12.8054 33.6575 11.6825 32.9628 11.6825 31.8931H11.6778Z" fill="black"/>
<path d="M32.9585 0.152805L12.4726 10.4195C11.9874 10.665 11.6777 11.1605 11.6777 11.7069V21.631L21.276 16.8195C22.2326 16.3425 23.3556 17.0371 23.3556 18.1069V28.369L34.2385 22.9138C34.7238 22.6683 35.0334 22.1728 35.0334 21.6264V1.4402C35.0334 0.370458 33.9104 -0.324179 32.9538 0.152805H32.9585Z" fill="#B0F001"/>
</g>
<defs>
<clipPath id="clip0_7820_1484">
<rect width="270.161" height="50" fill="white"/>
</clipPath>
</defs>
</svg>
